<svg xmlns="http://www.w3.org/2000/svg" fill="none" viewBox="0 0 86 20">
  <rect width="85" height="18" x=".5" y=".694824" fill="#fff" rx="9"/>
  <rect width="85" height="18" x=".5" y=".694824" stroke="#042159" rx="9"/>
  <path fill="#042159" d="M10.2 10.7148H7.68v2.48h-.984V7.59482h.984v2.2h2.52v-2.2h.984v5.59998H10.2v-2.48Zm2.931-3.11998h.984v5.59998h-.984V7.59482Zm5.1272 5.71998c-.4853 0-.9147-.1146-1.288-.344-.3733-.2293-.664-.5626-.872-1-.208-.4426-.312-.9653-.312-1.568 0-.60798.104-1.13064.312-1.56798.208-.44266.504-.77866.888-1.008.384-.23466.8373-.352 1.36-.352.6453 0 1.168.16534 1.568.496.4053.32534.6453.78667.72 1.384h-1.024c-.0587-.304-.1973-.54133-.416-.712-.2187-.17066-.5013-.256-.848-.256-.4907 0-.872.17334-1.144.52-.2667.34667-.4.848-.4 1.50398 0 .6667.1387 1.1654.416 1.496.2773.3307.672.496 1.184.496.3573 0 .648-.096.872-.288.2293-.192.3627-.472.4-.84h-1.792v-.896h2.752v2.816h-.816v-.632c-.1493.2347-.36.4187-.632.552-.272.1334-.5813.2-.928.2Zm7.6687-2.6h-2.52v2.48h-.984V7.59482h.984v2.2h2.52v-2.2h.984v5.59998h-.984v-2.48ZM36 9.69482c0-2.20913 1.7909-4 4-4h9v7.99998h-9c-2.2091 0-4-1.7908-4-3.99998Z"/>
  <path fill="#042159" stroke="#042159" d="M51.5 6.19482h13v6.99998h-13V6.19482Zm28 3.5c0 1.93298-1.567 3.49998-3.5 3.49998h-8.5V6.19482H76c1.933 0 3.5 1.56701 3.5 3.5Z"/>
</svg>
