<svg xmlns="http://www.w3.org/2000/svg" fill="none" viewBox="0 0 83 20">
  <rect width="82" height="18" x=".5" y=".694824" fill="#fff" rx="9"/>
  <rect width="82" height="18" x=".5" y=".694824" stroke="#042159" rx="9"/>
  <path fill="#042159" d="M6.696 7.59482h.984v4.67998h2.56v.92H6.696V7.59482Zm7.0353 5.71998c-.5067 0-.952-.112-1.336-.336-.384-.224-.6827-.5546-.896-.992-.2133-.4426-.32-.9733-.32-1.592 0-.61864.1067-1.14664.32-1.58398.2133-.44266.512-.776.896-1 .384-.224.8293-.336 1.336-.336s.952.112 1.336.336c.384.224.6827.55467.896.992.2133.43734.32.968.32 1.59198 0 .624-.1067 1.1547-.32 1.592-.2133.4374-.512.768-.896.992-.384.224-.8293.336-1.336.336Zm-1.536-2.92c0 .656.1387 1.1547.416 1.496.2827.336.656.504 1.12.504.4693 0 .8427-.168 1.12-.504.2773-.3413.416-.84.416-1.496 0-.65598-.1387-1.15198-.416-1.48798-.2773-.34133-.6507-.512-1.12-.512-.464 0-.8373.17067-1.12.512-.2773.336-.416.832-.416 1.48798Zm5.2497-2.79998h1.056l1.016 4.26398 1.016-4.26398h1.088l1.016 4.23998 1.008-4.23998h1.064l-1.44 5.59998h-1.168l-1.024-4.22398-1.024 4.22398h-1.168l-1.44-5.59998Zm15.555 2.1c0-2.20913 1.7909-4 4-4h9v7.99998h-9c-2.2091 0-4-1.7908-4-3.99998Z"/>
  <path stroke="#042159" d="M48.5 6.19482h13v6.99998h-13V6.19482Zm28 3.5c0 1.93298-1.567 3.49998-3.5 3.49998h-8.5V6.19482H73c1.933 0 3.5 1.56701 3.5 3.5Z"/>
</svg>
