<svg xmlns="http://www.w3.org/2000/svg" fill="none" viewBox="0 0 83 20">
  <rect width="82" height="18" x=".5" y=".694824" fill="#fff" rx="9"/>
  <rect width="82" height="18" x=".5" y=".694824" stroke="#042159" rx="9"/>
  <path fill="#042159" d="M6.696 7.59482h1.376L9.6 11.8908l1.536-4.29598h1.376v5.59998h-.96V8.97082L10.04 13.1948h-.88L7.648 8.94682v4.24798h-.952V7.59482Zm7.7709 0h3.544v.92h-2.56v1.28h2.56v.91998h-2.56v1.56h2.56v.92h-3.544V7.59482Zm5.31 0h2.024c.5387 0 1.0027.112 1.392.336.3947.224.696.54667.904.968.2134.42134.32.92.32 1.49598 0 .5707-.104 1.0667-.312 1.488-.208.4214-.5093.7467-.904.976-.3946.224-.8613.336-1.4.336h-2.024V7.59482Zm2.08 4.69598c.496 0 .8774-.1706 1.144-.512.2667-.3413.4-.8026.4-1.384 0-.58131-.1333-1.04264-.4-1.38398-.2666-.34133-.648-.512-1.144-.512h-1.096v3.79198h1.096ZM33 9.69482c0-2.20913 1.7909-4 4-4h9v7.99998h-9c-2.2091 0-4-1.7908-4-3.99998Z"/>
  <path fill="#042159" stroke="#042159" d="M48.5 6.19482h13v6.99998h-13V6.19482Z"/>
  <path stroke="#042159" d="M76.5 9.69482c0 1.93298-1.567 3.49998-3.5 3.49998h-8.5V6.19482H73c1.933 0 3.5 1.56701 3.5 3.5Z"/>
</svg>
