<svg xmlns="http://www.w3.org/2000/svg" fill="none" viewBox="0 0 25 21" width="25" height="21">
  <path fill="#1C1B1F" d="M11.8475 8.99142 1.9492 2.51917V15.5107c0 .2221.07135.4046.21405.5475.14291.1427.32541.214.5475.214H13.7034v1.2373H2.71075c-.56956 0-1.04509-.1907-1.42659-.5722-.381497-.3815-.572246-.857-.572246-1.4266V2.18634c0-.56957.190749-1.0451.572246-1.426594C1.66566.378249 2.14119.1875 2.71075.1875H20.9843c.5695 0 1.0451.190749 1.4266.572246.3815.381494.5722.857024.5722 1.426594v8.51806h-1.2373V2.51917l-9.8983 6.47225Zm0-1.38019 9.5175-6.18644H2.32998l9.51752 6.18644Zm8.1853 13.34847-.8519-.8519 2.5436-2.5983h-6.0222v-1.2373h6.046L19.15 13.6739l.8828-.8518 4.0685 4.0688-4.0685 4.0688ZM1.9492 2.51917V17.1049v-6.4005.2119-9.49151 1.09438Z"/>
</svg>
