<svg xmlns="http://www.w3.org/2000/svg" fill="none" viewBox="0 0 30 30">
  <path fill="#1C1B1F" d="M14.8475 14.9914 4.9492 8.51917V21.5107c0 .2221.07135.4046.21405.5475.14291.1427.32541.214.5475.214H16.7034v1.2373H5.71075c-.56956 0-1.04509-.1907-1.42659-.5722-.3815-.3815-.57225-.857-.57225-1.4266V8.18634c0-.56957.19075-1.0451.57225-1.42659.3815-.3815.85703-.57225 1.42659-.57225H23.9843c.5695 0 1.0451.19075 1.4266.57225.3815.38149.5722.85702.5722 1.42659v8.51806h-1.2373V8.51917l-9.8983 6.47223Zm0-1.3802 9.5175-6.18641H5.32998l9.51752 6.18641Zm8.1853 13.3485-.8519-.8519 2.5436-2.5983h-6.0222v-1.2373h6.046L22.15 19.6739l.8828-.8518 4.0685 4.0688-4.0685 4.0688ZM4.9492 8.51917V23.1049v-6.4005.2119-9.49151 1.09438Z"/>
</svg>
