<svg xmlns="http://www.w3.org/2000/svg" fill="none" viewBox="0 0 20 21">
  <path fill="#042159" d="M1.82688 20.6948c-.51209 0-.944588-.1764-1.297505-.5294C.176458 19.8125 0 19.38 0 18.8679V2.5217c0-.51208.176458-.94458.529375-1.2975C.882292.871283 1.31479.694824 1.82688.694824h7.01437V1.75264H1.82688c-.1923 0-.36855.0801-.52876.24031-.1602.16021-.24031.33646-.24031.52875v16.3462c0 .1923.08011.3686.24031.5288.16021.1602.33646.2403.52876.2403H18.1731c.1923 0 .3686-.0801.5288-.2403.1602-.1602.2403-.3365.2403-.5288v-7.0143H20v7.0143c0 .5121-.1765.9446-.5294 1.2975-.3529.353-.7854.5294-1.2975.5294H1.82688Zm5.28531-6.354-.75313-.7582L18.1891 1.75264h-6.0785V.694824H20V8.5842h-1.0578V2.51045L7.11219 14.3408Z"/>
</svg>
