<svg xmlns="http://www.w3.org/2000/svg" fill="none" viewBox="0 0 30 30">
  <path fill="#1C1B1F" d="M14.8952 21.1965c.2744 0 .5056-.094.6935-.2818.188-.1881.2821-.4193.2821-.6935 0-.2745-.0941-.5058-.2821-.6938-.1879-.1879-.4191-.2818-.6935-.2818-.2745 0-.5057.0939-.6935.2818-.1881.188-.2821.4193-.2821.6938 0 .2742.094.5054.2821.6935.1878.1878.419.2818.6935.2818Zm-.6379-4.0973h1.1946c.0318-.552.1341-.9914.3069-1.318.173-.3269.5038-.7346.9923-1.2231.5947-.5949 1.0258-1.1109 1.2933-1.5478.2672-.437.4008-.9331.4008-1.4882 0-.9661-.3315-1.74456-.9947-2.33536-.663-.59102-1.4727-.88652-2.4291-.88652-.8806 0-1.6384.23477-2.2736.70432-.6353.46956-1.0997 1.03276-1.3931 1.68956l1.1373.4711c.2077-.4935.5043-.9024.89-1.22681.3854-.32438.9064-.48656 1.563-.48656.7788 0 1.3579.21301 1.7371.63907.379.4258.5685.91.5685 1.4526 0 .4138-.1134.793-.3402 1.1373-.2268.3442-.5448.7058-.954 1.0848-.6646.6139-1.1139 1.1664-1.348 1.6574-.234.491-.3511 1.0497-.3511 1.6762Zm-7.30924 7.6427c-.56957 0-1.0451-.1907-1.4266-.5722-.38149-.3815-.57224-.8571-.57224-1.4266V6.94415c0-.56956.19075-1.04509.57224-1.42659.3815-.3815.85703-.57225 1.4266-.57225H22.747c.5696 0 1.0451.19075 1.4266.57225.3815.3815.5722.85703.5722 1.42659V22.7431c0 .5695-.1907 1.0451-.5722 1.4266-.3815.3815-.857.5722-1.4266.5722H6.94806Zm0-1.2373H22.747c.1905 0 .3651-.0793.5237-.2378.1586-.1586.2378-.3332.2378-.5237V6.94415c0-.19054-.0792-.3651-.2378-.52368-.1586-.15858-.3332-.23787-.5237-.23787H6.94806c-.19054 0-.36511.07929-.52368.23787-.15858.15858-.23787.33314-.23787.52368V22.7431c0 .1905.07929.3651.23787.5237.15857.1585.33314.2378.52368.2378Z"/>
</svg>
