<svg xmlns="http://www.w3.org/2000/svg" viewBox="0 0 16 22" width="16" height="22">
  <path fill="#1C1B1F" d="M2.30775 21.4995c-.50517 0-.93275-.175-1.28275-.525-.35-.35-.525-.7776-.525-1.2828V9.3072c0-.50516.175-.93275.525-1.28275.35-.35.77758-.525 1.28275-.525h2.5575v1.5h-2.5575c-.077 0-.1475.03209-.2115.09625C2.03208 9.1597 2 9.2302 2 9.3072v10.3845c0 .077.03208.1475.09625.2115.064.0642.1345.0963.2115.0963H13.6923c.0769 0 .1475-.0321.2115-.0963.0641-.064.0962-.1345.0962-.2115V9.3072c0-.077-.0321-.1475-.0962-.2115-.064-.06416-.1346-.09625-.2115-.09625h-2.5575v-1.5h2.5575c.5051 0 .9327.175 1.2827.525.35.35.525.77759.525 1.28275v10.3845c0 .5052-.175.9328-.525 1.2828-.35.35-.7776.525-1.2827.525H2.30775Zm4.94225-6.75V3.7187l-1.85 1.85-1.05375-1.06925L8 .845703l3.6538 3.653747L10.6 5.5687l-1.85-1.85v11.0308h-1.5Z"/>
</svg>
